/* XPM */
static char *_e671191a30d4560cebcf03f358e056dErgnuoRzEbkjgXKN[] = {
/* columns rows colors chars-per-pixel */
"32 32 13 1 ",
"  c gray13",
". c #CC5814",
"X c #FF6E19",
"o c #DEA610",
"O c #FFEF15",
"+ c #A79D79",
"@ c #FF9E66",
"# c #FFFC54",
"$ c gray60",
"% c #CFBF8C",
"& c #C0B594",
"* c #E6E6E6",
"= c white",
/* pixels */
"%%&&&&&&&&&&&&&&&&&&&&&&&&&&&&%%",
"%&++&&&&&&&&&&&&&&&&&&&&&&&&++&%",
"&++&&&&&&&&&&&&&&&&&&&&&&&&&&++&",
"&+&&&&&&&&&&&&     &&&&&&&&&&&+&",
"&&&&&&&&&&&&  O===O  &&&&&&&&&&&",
"&&&&&&&&&&& OOoOOOoOO &&&&&&&&&&",
"&&&&&&&&&& O#O#ooo#O#O &&&&&&&&&",
"&&&&&&&&&& OO#O###O#OO &&&&&&&&&",
"&&&&&&&&& oOO##OOO##OOo &&&&&&&&",
"&&&&&&&&& oOO#OOOOO#OOo &&&&&&&&",
"&&&&&&&&& oOO###OOO#OOo &&&&&&&&",
"&&&&&&&&& oOO#=#OOO#OOo &&&&&&&&",
"&&&&&&&&& oOO###OO##OOo &&&&&&&&",
"&&&&&&&&&& oO######OOo &&&&&&&&&",
"&&&&&&&&&& ooOO#OO#Ooo &&&&&&&&&",
"&&&&&&&&&&& oooOOOooo &&&&&&&&&&",
"&&&&&&&&&&& oOOoooOOo &&&&&&&&&&",
"&&&&&&&&&&&& oOOOOOo &&&&&&&&&&&",
"&&&&&&&&&&& X ooooo  &&&&&&&&&&&",
"&&&&&&&&&& X@*     @X &&&&&&&&&&",
"&&&&&&&&& XXX*XXXX*XXX &&&&&&&&&",
"&&&&&&&& XXXXXX@@XXXXXX &&&&&&&&",
"&&&&&&&& *X XX@XX@XX X* &&&&&&&&",
"&&&&&&&& X* XXXXXXXX *X &&&&&&&&",
"&&&&&&&&&    XXXXXX    &&&&&&&&&",
"&&&&&&&&&&& XX....XX &&&&&&&&&&&",
"&&&&&&&&&& XX..&&..XX &&&&&&&&&&",
"&&&&&&&&&& X..&&&&..X &&&&&&&&&&",
"&+&&&&&&&& *$&&&&&&$* &&&&&&&&+&",
"&++&&&&&&&   &&&&&&   &&&&&&&++&",
"%&++&&&&&    &&&&&&    &&&&&++&%",
"%%&&&&&&&    &&&&&&    &&&&&&&%%"
};
