/* XPM */
static char *_68654fd35d446249e9c71f1738da01ePA8TqjsRQ4rC11Tx[] = {
/* columns rows colors chars-per-pixel */
"32 32 8 1 ",
"  c #3F2A2D",
". c #9B5F49",
"X c #B36D42",
"o c #C7B959",
"O c #93A697",
"+ c #A5B6A9",
"@ c #C1D0C4",
"# c #E0E5DF",
/* pixels */
"  ############################  ",
" ############################## ",
"################################",
"################################",
"@##############################@",
"@@############################@@",
" @@@@@@@@@@@@@@@@@@@@@@@@@@@@@@ ",
"  @@@@@@@@@@@@@@@@@@@@@@@@@@@@  ",
"                                ",
"  ++++O..................O++++  ",
" ++++O.XXXXXXX X         .O++++ ",
" +++O.XXXXXXXXX           .O+++ ",
" ++O.XXXXXXXXX X           .O++ ",
" +O.XXXXXXXXXXX             .O+ ",
" +O.XXXXXXXXXX X            .O+ ",
" +O.XXXXXXXXXXX             .O+ ",
" +O.XXXXXXXXXX X            .O+ ",
" +O.XXXXXXXXXXX             .O+ ",
" +O.XXXXXXXXXX o            .O+ ",
" +O.XXXXXXXXXXo             .O+ ",
" +O.XXXXXXXXXX o            .O+ ",
" +O.XXXXXXXXXXX             .O+ ",
" +O.XXXXXXXXXX X            .O+ ",
" +O.XXXXXXXXXXX             .O+ ",
" +O.XXXXXXXXXX X            .O+ ",
" +O.XXXXXXXXXXX             .O+ ",
" +O.XXXXXXXXXX X            .O+ ",
" +O.XXXXXXXXXXX             .O+ ",
"  O.XXXXXXXXXX              .O  ",
".  .XXXXXXXX                .  .",
".....XXXX                  .....",
"................................"
};
