/* XPM */
static char *_edafdbf3b224dff83cc475e586417a2PRRZkUvAV0E7U0u5[] = {
/* columns rows colors chars-per-pixel */
"32 32 3 1 ",
"  c #A79D79",
". c #CFBF8C",
"X c #C0B594",
/* pixels */
"..XXXXXXXXXXXXXXXXXXXXXXXXXXXX..",
".X  XXXXXXXXXXXXXXXXXXXXXXXX  X.",
"X  XXXXXXXXXXXXXXXXXXXXXXXXXX  X",
"X XXXXXXXXXXXXXXXXXXXXXXXXXXXX X",
"XXXXXXXXXXXXXXXXXXXXXXXXXXXXXXXX",
"XXXXXXXXXXXXXXXXXXXXXXXXXXXXXXXX",
"XXXXXXXXXXXXXXXXXXXXXXXXXXXXXXXX",
"XXXXXXXXXXXXXXXXXXXXXXXXXXXXXXXX",
"XXXXXXXXXXXXXXXXXXXXXXXXXXXXXXXX",
"XXXXXXXXXXXXXXXXXXXXXXXXXXXXXXXX",
"XXXXXXXXXXXXXXXXXXXXXXXXXXXXXXXX",
"XXXXXXXXXXXXXXXXXXXXXXXXXXXXXXXX",
"XXXXXXXXXXXXXX XX XXXXXXXXXXXXXX",
"XXXXXXXXXXXXX  XX  XXXXXXXXXXXXX",
"XXXXXXXXXXXX  X..X  XXXXXXXXXXXX",
"XXXXXXXXXXXXXX....XXXXXXXXXXXXXX",
"XXXXXXXXXXXXXX....XXXXXXXXXXXXXX",
"XXXXXXXXXXXX  X..X  XXXXXXXXXXXX",
"XXXXXXXXXXXXX  XX  XXXXXXXXXXXXX",
"XXXXXXXXXXXXXX XX XXXXXXXXXXXXXX",
"XXXXXXXXXXXXXXXXXXXXXXXXXXXXXXXX",
"XXXXXXXXXXXXXXXXXXXXXXXXXXXXXXXX",
"XXXXXXXXXXXXXXXXXXXXXXXXXXXXXXXX",
"XXXXXXXXXXXXXXXXXXXXXXXXXXXXXXXX",
"XXXXXXXXXXXXXXXXXXXXXXXXXXXXXXXX",
"XXXXXXXXXXXXXXXXXXXXXXXXXXXXXXXX",
"XXXXXXXXXXXXXXXXXXXXXXXXXXXXXXXX",
"XXXXXXXXXXXXXXXXXXXXXXXXXXXXXXXX",
"X XXXXXXXXXXXXXXXXXXXXXXXXXXXX X",
"X  XXXXXXXXXXXXXXXXXXXXXXXXXX  X",
".X  XXXXXXXXXXXXXXXXXXXXXXXX  X.",
"..XXXXXXXXXXXXXXXXXXXXXXXXXXXX.."
};
