/* XPM */
static char *_09de863594b42fcaf8cca11714ffe733B5MsDJY46Hs95vK[] = {
/* columns rows colors chars-per-pixel */
"32 32 21 1 ",
"  c gray13",
". c #4D0808",
"X c gray30",
"o c #800D0D",
"O c #B31212",
"+ c #E61717",
"@ c #CC5814",
"# c #FF6E19",
"$ c #DEA610",
"% c #FFEF15",
"& c #B38E59",
"* c #A79D79",
"= c #FF9E66",
"- c #E6B773",
"; c #FFFC54",
": c gray60",
"> c #CFBF8C",
", c #C0B594",
"< c #E6CAA1",
"1 c #E6E6E6",
"2 c white",
/* pixels */
">>,,,,,,,,,,,,,,,,,,,,,,,,,,,,>>",
">,**,,,,,,,,,,,,,,,,,,,,,,,,**,>",
",**,,,,,,,,,,,,,,,,,,,,,,,,,,**,",
",*,,,,,,,,,,,,     ,,,,,,,,,,,*,",
",,,,,,,,,,,,  $%%%$  ,,,,,,,,,,,",
",,,,,,,,,,, %%$222$%% ,,,,,,,,,,",
",,,,,,,,,,, ;%$222$%% ,,,,,,,,,,",
",,,,,,,,,, 2;%$222$%%% ,,,,,,,,,",
",,,,,,,,,, ;;%;;;;;;;% ,,,,,,,,,",
",,,,,,,,, %;$$$$$$$$$;% ,,,,,,,,",
",,,,,,,,, ;$         $; ,,,,,,,,",
",,,,,,,, $$  &-o--o-& $$ ,,,,,,,",
",,,,,,,,   O+--o--o--    ,,,,,,,",
",,,,,,,,, .o&---<<---oo ,,,,,,,,",
",,,,,,,,,, .&-<----<-& ,,,,,,,,,",
",,,,,,,,,,,.o  ----   ,,,,,,,,,,",
",,,,,,,,,,,, @@ << @@ ,,,,,,,,,,",
",,,,,,,,,,,, @@ -- @@ ,,,,,,,,,,",
",,,,,,,,,,, :@#@  @#: ,,,,,,,,,,",
",,,,,,,,,, #=1##@@#1## ,,,,,,,,,",
",,,,,,,,,   #1#####1=   ,,,,,,,,",
",,,,,,,,, << 1=####1 << ,,,,,,,,",
",,,,,,,, -<<< =#### -<<- ,,,,,,,",
",,,,,,,, --<< @=@#@ ---- ,,,,,,,",
",,,,,,,,, -- #=###=# -- ,,,,,,,,",
",,,,,,,,,,  @#=###=#@  ,,,,,,,,,",
",,,,,,,,,,, @#=#@@=#@ ,,,,,,,,,,",
",,,,,,,,,,, @###@@##@ ,,,,,,,,,,",
",*,,,,,,,,, :11:::11: ,,,,,,,,*,",
",**,,,,,,,,,         ,,,,,,,,**,",
">,**,,,,,,,,  X   X  ,,,,,,,**,>",
">>,,,,,,,,,,,       ,,,,,,,,,,>>"
};
