/* XPM */
static char *_815a1abf3134a07d12b75bd8c285d5b59gUvX196mVmzTRY[] = {
/* columns rows colors chars-per-pixel */
"32 32 21 1 ",
"  c gray13",
". c #4D0808",
"X c gray30",
"o c #800D0D",
"O c #B31212",
"+ c #E61717",
"@ c #80653F",
"# c #CC5814",
"$ c #FF6E19",
"% c #DEA610",
"& c #FFEF15",
"* c #B38E59",
"= c #A79D79",
"- c #FF9E66",
"; c #E6B773",
": c #FFFC54",
"> c gray60",
", c #CFBF8C",
"< c #C0B594",
"1 c #E6CAA1",
"2 c #E6E6E6",
/* pixels */
",,<<<<<<<<<<<<<<<<<<<<<<<<<<<<,,",
",<==<<<<<<<<<<<<<<<<<<<<<<<<==<,",
"<==<<<<<<<<<<<<<<<<<<<<<<<<<<==<",
"<=<<<<<<<<<<       <<<<<<<<<<<=<",
"<<<<<<<<<<< ::&&:&&  <<<<<<<<<<<",
"<<<<<<<<<< :&&&:&&%&: <<<<<<<<<<",
"<<<<<<<<<< :::&:&&&%2 <<<<<<<<<<",
"<<<<<<<<< ::2:&:&&&%2 <<<<<<<<<<",
"<<<<<<<<< ::::&:&&&%%% <<<<<<<<<",
"<<<<<<<<< :&&&&%%%%   <<<<<<<<<<",
"<<<<<<<<< &&%%%    ;* <<<<<<<<<<",
"<<<<<<<<  %%   **;o;; <<<<<<<<<<",
"<<<<<<< %%  +o. ;;o;; <<<<<<<<<<",
"<<<<<<     oO @*;;;111 <<<<<<<<<",
"<<<<<<<<<< .o *;11111; <<<<<<<<<",
"<<<<<<<<<<<..*;;1111; <<<<<<<<<<",
"<<<<<<<<<<<<< *;;1;; <<<<<<<<<<<",
"<<<<<<<<<<<<=     * <<<<<<<<<<<<",
"<<<<<<<<<<<< # #$$ <<<<<<<<<<<<<",
"<<<<<<<<<<< ##$ $-2 <<<<<<<<<<<<",
"<<<<<<<<<<< #$- $-2  <<<<<<<<<<<",
"<<<<<<<<<<< ##$2   11 <<<<<<<<<<",
"<<<<<<<<<<< >>2--$$111 <<<<<<<<<",
"<<<<<<<<<<<  ##$$$$;11 <<<<<<<<<",
"<<<<<<<<<<< # #####;; <<<<<<<<<<",
"<<<<<<<<<<< ##       <<<<<<<<<<<",
"<<<<<<<<<<<< #$$$-#$ <<<<<<<<<<<",
"<<<<<<<<<<<< >222>22 <<<<<<<<<<<",
"<=<<<<<<<<<<<       <<<<<<<<<<=<",
"<==<<<<<<<<<         <<<<<<<<==<",
",<==<<<<<<<<     X  X <<<<<<==<,",
",,<<<<<<<<<<          <<<<<<<<,,"
};
