/* XPM */
static char *d930f12907e94eb9ae67788a4035853ffgrSHI2DuAfP1MY2[] = {
/* columns rows colors chars-per-pixel */
"32 32 7 1 ",
"  c #3F2A2D",
". c #9B5F49",
"X c #B36D42",
"o c #93A697",
"O c #A5B6A9",
"+ c #C1D0C4",
"@ c #E0E5DF",
/* pixels */
"  @@@@@@@@@@@@@@@@@@@@@@@@@@@@  ",
" @@@@@@@@@@@@@@@@@@@@@@@@@@@@@@ ",
"@@@@@@@@@@@@@@@@@@@@@@@@@@@@@@@@",
"@@@@@@@@@@@@@@@@@@@@@@@@@@@@@@@@",
"+@@@@@@@@@@@@@@@@@@@@@@@@@@@@@@+",
"++@@@@@@@@@@@@@@@@@@@@@@@@@@@@++",
" ++++++++++++++++++++++++++++++ ",
"  ++++++++++++++++++++++++++++  ",
"                                ",
"  OoOOOOOOOOOOOoOOOOOOOOOoOOOO  ",
" OOoOOOOOOOOOOOoOOOOOOOOOoOOOOO ",
" OOoOOOOOOOOOOOoOOOOOOOOOoOOOOO ",
" OOoOOOOOOOOOOOoOOOOOOOOOoOOOOO ",
" oooooooooooooooooooooooooooooo ",
" OOOOOOOoOOOOOOOOOOOoOOOOOOOOOO ",
" OOOOOOOoOOOOOOOOOOOoOOOOOOOOOO ",
" OOOOOOOoOOOOOOOOOOOoOOOOOOOOOO ",
" OOOOOOOoOOOOOOOOOOOoOOOOOOOOOO ",
" oooooooooooooooooooooooooooooo ",
" OOoOOOOOOOOOOOoOOOOOOOOOoOOOOO ",
" OOoOOOOOOOOOOOoOOOOOOOOOoOOOOO ",
" OOoOOOOOOOOOOOoOOOOOOOOOoOOOOO ",
" OOoOOOOOOOOOOOoOOOOOOOOOoOOOOO ",
" oooooooooooooooooooooooooooooo ",
" OOOOOOOoOOOOOOOOOOOoOOOOOOOOOO ",
" OOOOOOOoOOOOOOOOOOOoOOOOOOOOOO ",
" OOOOOOOoOOOOOOOOOOOoOOOOOOOOOO ",
" oooooooooooooooooooooooooooooo ",
"  OoOOOOOOOOOOOoOOOOOOOOOoOOOO  ",
".  oOOOOOOOOOOOoOOOOOOOOOoOOO  .",
"....XXXXXXXXXXXXXXXXXXXXXXXX....",
"................................"
};
