/* XPM */
static char *fa8b1d50e82846648a8c4b1aeba58eb37ecnkPQMb7jGrTCe[] = {
/* columns rows colors chars-per-pixel */
"32 32 9 1 ",
"  c #3F2A2D",
". c #9B5F49",
"X c #B36D42",
"o c #C7B959",
"O c #E1D373",
"+ c #93A697",
"@ c #A5B6A9",
"# c #C1D0C4",
"$ c #E0E5DF",
/* pixels */
"  $$$$$$$$$$$$$$$$$$$$$$$$$$$$  ",
" $$$$$$$$$$$$$$$$$$$$$$$$$$$$$$ ",
"$$$$$$$$$$$$$$$$$$$$$$$$$$$$$$$$",
"$$$$$$$$$$$$$$$$$$$$$$$$$$$$$$$$",
"#$$$$$$$$$$$$$$$$$$$$$$$$$$$$$$#",
"##$$$$$$$$$$$$$$$$$$$$$$$$$$$$##",
" ############################## ",
"  ############################  ",
"                                ",
"  @@@@+..................+@@@@  ",
" @@@@+.XXXXXXXXXXXXXXXXXX.+@@@@ ",
" @@@+.XXXXXXXXXXXXXXXXXXXX.+@@@ ",
" @@+.XXXXXXXXXXXXXXXXXXXXXX.+@@ ",
" @+.XXXXXXXXXXXXXXXXXXXXXXXX.+@ ",
" @+.XXXXXXXXXXXXXXXXXXXXXXXX.+@ ",
" @+.XXXXXXXXXXXXXXXXXXXXXXXX.+@ ",
" @+.XXXXXXXXXXXXXXXXXXXXXXXX.+@ ",
" @+.XXXXXXXXXXXXXXXXXXXXXXXX.+@ ",
" @+.XXXXXXXXXXXXXXXXXXXXXXXX.+@ ",
" @+.XXXXXXXXXXXXXXXXXXXXXXXX.+@ ",
" @+.XXXXXXXXXXXXXXXXXXoOOXXX.+@ ",
" @+.XXXXXXXXXXXXXXXXXXooOXXX.+@ ",
" @+.XXXXXXXXXXXXXXXXXXoooXXX.+@ ",
" @+.XXXXXXXXXXXXXXXXXX...XXX.+@ ",
" @+.XXXXXXXXXXXXXXXXXXXXXXXX.+@ ",
" @+.XXXXXXXXXXXXXXXXXXXXXXXX.+@ ",
" @+.XXXXXXXXXXXXXXXXXXXXXXXX.+@ ",
" @+.XXXXXXXXXXXXXXXXXXXXXXXX.+@ ",
"  +.XXXXXXXXXXXXXXXXXXXXXXXX.+  ",
".  .XXXXXXXXXXXXXXXXXXXXXXXX.  .",
".....XXXXXXXXXXXXXXXXXXXXXX.....",
"................................"
};
