/* XPM */
static char *_af74359b7654048c71f3ff4936e8b43KQGvkc3Bs0o9jaZx[] = {
/* columns rows colors chars-per-pixel */
"32 32 10 1 ",
"  c black",
". c #7BB05B",
"X c #A79D79",
"o c #88BB68",
"O c #90C270",
"+ c #AEA181",
"@ c #CFBF8C",
"# c #C2B593",
"$ c #C0B594",
"% c #D4C2BD",
/* pixels */
"@@$$$$$$$$$$$$$$$$$$$$$$$$$$$$@@",
"@$XX$$$$$$$$$$$$$$$$$$$$$$$$XX$@",
"$XX$$$$$$$$$$$$$$$$$$$$$$$$$$XX$",
"$X$$$$$$$$$$$$$$$$$$$$$$$$$$$$X$",
"$$$$$$$$$$$$$$$$$$$$$$$$$$$$$$$$",
"$$$$$$$$$$$$$$$$$$$$$$$$$$$$$$$$",
"$$$$$$$$$$$$$$$$$$$$$$$$$$$$$$$$",
"$$$$$$$$$$$$$$$$$$$$$$$$$$$$$$$$",
"$$$$$$$$$$$$$$$$$$$$$$$$$$$$$$$$",
"$$$$$$$$$$$$$$$$$$$$$$$$$$$$$$$$",
"$$$$$$$$$$$$$$    $$$$$$$$$$$$$$",
"$$$$$$$$$$$$$ OOOO $$$$$$$$$$$$$",
"$$$$$$$$$$$$ Ooooo. $$$$$$$$$$$$",
"$$$$$$$$$$$ O%ooo%.. $$$$$$$$$$$",
"$$$$$$$$$$$ Oooooo.. $$$$$$$$$$$",
"$$$$$$$$$$ Oooooo.... $$$$$$$$$$",
"$$$$$$$$$$ Oooo%..... $$$$$$$$$$",
"$$$$$$$$$$$  ......  $$$$$$$$$$$",
"$$$$$$$$$$$$$      $$$$$$$$$$$$$",
"$$$$$$$$$$$$$$ ++ $$$$$$$$$$$$$$",
"$$$$$$$$$$$$$$ #+ $$$$$$$$$$$$$$",
"$$$$$$$$$$$$$$$  $$$$$$$$$$$$$$$",
"$$$$$$$$$$$$$$$$$$$$$$$$$$$$$$$$",
"$$$$$$$$$$$$$$$$$$$$$$$$$$$$$$$$",
"$$$$$$$$$$$$$$$$$$$$$$$$$$$$$$$$",
"$$$$$$$$$$$$$$$$$$$$$$$$$$$$$$$$",
"$$$$$$$$$$$$$$$$$$$$$$$$$$$$$$$$",
"$$$$$$$$$$$$$$$$$$$$$$$$$$$$$$$$",
"$X$$$$$$$$$$$$$$$$$$$$$$$$$$$$X$",
"$XX$$$$$$$$$$$$$$$$$$$$$$$$$$XX$",
"@$XX$$$$$$$$$$$$$$$$$$$$$$$$XX$@",
"@@$$$$$$$$$$$$$$$$$$$$$$$$$$$$@@"
};
